<?xml version="1.0" encoding="utf-8"?>
<!-- Generator: Adobe Illustrator 18.1.1, SVG Export Plug-In . SVG Version: 6.00 Build 0)  -->
<svg version="1.1" id="Calque_1" xmlns="http://www.w3.org/2000/svg" xmlns:xlink="http://www.w3.org/1999/xlink" x="0px" y="0px"
	 viewBox="0 0 666.4 178.6" enable-background="new 0 0 666.4 178.6" xml:space="preserve">
<pattern  x="-523.1" y="-310.7" width="144.1" height="138.4" patternUnits="userSpaceOnUse" id="Alysse" viewBox="100 -216.8 144.1 138.4" overflow="visible">
	<g>
		<polygon fill="none" points="100,-216.8 244.1,-216.8 244.1,-78.5 100,-78.5 		"/>
		<g>
			<path fill="#C6DD7F" d="M311-58.3c-11.8-1.4-19.4,0.3-22.7,3.1c-3,2.5-5,5.4-2.2,11.9c2.9,7.1,1.5,14.7-5.5,15.9
				c-6.2,1-10.9-4.8-11.2-12.3c-0.2-5.2-1.9-8.3-5.5-7.6c-3.6,0.7-4.6,5.9-3.6,11.8c1.4,8.1,5.5,11.8,6.2,20.2
				c0.5,6.1-2.9,13.7-12.5,15c-9.3,1.4-15.9-4.3-16.6-10.5c-0.7-6.6,3.6-10.9,3.1-17.6c-0.5-6.7-4-10.2-5.9-17.3
				c-2.8-10.5,1.2-19,7.8-22.7c14.7-8.1,22.8,3.6,36,1.6c10.9-1.7,23.3-18.2,33-19.5c8.2-1.2,13.8,4.7,15,14
				C327.6-63,321.7-57.1,311-58.3z M268.8-57.8c0-2.3-1.9-4.2-4.2-4.2c-2.3,0-4.2,1.9-4.2,4.2s1.9,4.2,4.2,4.2
				C267-53.6,268.8-55.5,268.8-57.8z M318.3-73.2c0-1-0.8-1.7-1.7-1.7c-1,0-1.7,0.8-1.7,1.7s0.8,1.7,1.7,1.7
				C317.5-71.4,318.3-72.2,318.3-73.2z"/>
		</g>
		<g>
			<path fill="#E9DDB7" d="M148.8-77.5c0,7.2,4.6,13.8-1,16.3c-8.5,3.8-28-14.3-28-36.2c0-12,8.7-19,17.8-19c12.3,0,18,8.2,18,17.5
				C155.6-89.5,148.8-85.7,148.8-77.5z M143.4-82.9c0-1.1-0.9-2.1-2.1-2.1c-1.1,0-2.1,0.9-2.1,2.1c0,1.1,0.9,2.1,2.1,2.1
				C142.5-80.8,143.4-81.7,143.4-82.9z"/>
			<path fill="#A6D0E4" d="M223.5-54c-7.9,2.7-19.4-15.3-17.7-27c1.2-8.2,7.1-13.2,13.1-14.2c7.5-1.3,12.9,2.6,13.3,7.2
				c0.5,6.3-3.6,7.5-4.2,15C227.4-65.9,231.7-56.8,223.5-54z M219.7-81.5c0-1.4-1.2-2.6-2.6-2.6c-1.4,0-2.6,1.2-2.6,2.6
				c0,1.4,1.2,2.6,2.6,2.6C218.5-78.9,219.7-80.1,219.7-81.5z"/>
			<path fill="#E9DDB7" d="M119.4-76.5c0,1.4-1.2,2.6-2.6,2.6c-1.4,0-2.6-1.2-2.6-2.6s1.2-2.6,2.6-2.6
				C118.2-79.1,119.4-77.9,119.4-76.5z"/>
			<path fill="#A6D0E4" d="M184.6-84.2c0.7,8.1,12.7,7,17.9,14.2c10.5,14.5-1.2,46.4-21.6,46.4c-11.7,0-24.2-9.7-24.2-29.2
				c0-15.8,10.2-21.5,8.3-42.2c-1-10.8-12.5-20.3-12.5-34.8c0-5.9,3.6-13.4,11.6-13.4c7.1,0,10.8,6,10.8,12.9c0,6.8-5.4,15.7,1.4,19
				c5.2,2.6,13.2-4.8,19.5-6.8c5.2-1.6,12.4,0.2,14.8,8.5c2.5,8.9-3.3,14.7-11.6,16.7C192.5-91.3,184-90.6,184.6-84.2z M168.6-114.7
				c0-1.8-1.5-3.3-3.3-3.3c-1.8,0-3.3,1.5-3.3,3.3c0,1.8,1.5,3.3,3.3,3.3C167.1-111.5,168.6-112.9,168.6-114.7z M194.6-105.1
				c1.3,0,2.3-1,2.3-2.3c0-1.3-1-2.3-2.3-2.3c-1.3,0-2.3,1-2.3,2.3C192.2-106.1,193.3-105.1,194.6-105.1z M174.6-45.4
				c0-1.8-1.5-3.3-3.3-3.3c-1.8,0-3.3,1.5-3.3,3.3c0,1.8,1.5,3.3,3.3,3.3C173.1-42.1,174.6-43.6,174.6-45.4z"/>
			<path fill="#C6DD7F" d="M166.9-58.3c-11.8-1.4-19.4,0.3-22.7,3.1c-3,2.5-5,5.4-2.2,11.9c2.9,7.1,1.5,14.7-5.5,15.9
				c-6.2,1-10.9-4.8-11.2-12.3c-0.2-5.2-1.9-8.3-5.5-7.6c-3.6,0.7-4.6,5.9-3.6,11.8c1.4,8.1,5.5,11.8,6.2,20.2
				c0.5,6.1-2.9,13.7-12.5,15c-9.3,1.4-15.9-4.3-16.6-10.5c-0.7-6.6,3.6-10.9,3.1-17.6c-0.5-6.7-4-10.2-5.9-17.3
				c-2.8-10.5,1.2-19,7.8-22.7c14.7-8.1,22.8,3.6,36,1.6c10.9-1.7,23.3-18.2,33-19.5c8.2-1.2,13.8,4.7,15,14
				C183.5-63,177.6-57.1,166.9-58.3z M124.7-57.8c0-2.3-1.9-4.2-4.2-4.2c-2.3,0-4.2,1.9-4.2,4.2s1.9,4.2,4.2,4.2
				C122.9-53.6,124.7-55.5,124.7-57.8z M174.2-73.2c0-1-0.8-1.7-1.7-1.7c-1,0-1.7,0.8-1.7,1.7s0.8,1.7,1.7,1.7
				C173.4-71.4,174.2-72.2,174.2-73.2z"/>
		</g>
		<g>
			<path fill="#A6D0E4" d="M290.3-104.8c0,6.2-4.2,10.7-8.6,11.6c-4.5,0.9-8.3-1.3-13,1.2c-4.8,2.6-7.1,11.1-16.8,11.1
				c-8,0-15.2-8-15.2-18.8c0-20.2,13.1-29.2,25.6-29.2C278.9-129.1,290.3-116.4,290.3-104.8z M270.6-119.2c0-2.1-1.7-3.8-3.8-3.8
				c-2.1,0-3.8,1.7-3.8,3.8c0,2.1,1.7,3.8,3.8,3.8C268.9-115.4,270.6-117.1,270.6-119.2z"/>
			<path fill="#C6DD7F" d="M311-196.7c-11.8-1.4-19.4,0.3-22.7,3.1c-3,2.5-5,5.4-2.2,11.9c2.9,7.1,1.5,14.7-5.5,15.9
				c-6.2,1-10.9-4.8-11.2-12.3c-0.2-5.2-1.9-8.3-5.5-7.6c-3.6,0.7-4.6,5.9-3.6,11.8c1.4,8.1,5.5,11.8,6.2,20.2
				c0.5,6.1-2.9,13.7-12.5,15c-9.3,1.4-15.9-4.3-16.6-10.5c-0.7-6.6,3.6-10.9,3.1-17.6c-0.5-6.7-4-10.2-5.9-17.3
				c-2.8-10.5,1.2-19,7.8-22.7c14.7-8.1,22.8,3.6,36,1.6c10.9-1.7,23.3-18.2,33-19.5c8.2-1.2,13.8,4.7,15,14
				C327.6-201.3,321.7-195.4,311-196.7z M268.8-196.2c0-2.3-1.9-4.2-4.2-4.2c-2.3,0-4.2,1.9-4.2,4.2c0,2.3,1.9,4.2,4.2,4.2
				C267-192,268.8-193.9,268.8-196.2z M318.3-211.5c0-1-0.8-1.7-1.7-1.7c-1,0-1.7,0.8-1.7,1.7c0,1,0.8,1.7,1.7,1.7
				C317.5-209.8,318.3-210.6,318.3-211.5z"/>
		</g>
		<g>
			<path fill="#A6D0E4" d="M131.8-133.2c-14,2-21.2-13.3-17.7-20.3c3.7-7.3,12.1-4.2,19.5-4.2c9.7,0,16.4-7.6,20.4-2.3
				C158.3-154.4,149-135.6,131.8-133.2z M132.3-150.7c0-1.2-1-2.2-2.2-2.2c-1.2,0-2.2,1-2.2,2.2c0,1.2,1,2.2,2.2,2.2
				C131.3-148.4,132.3-149.4,132.3-150.7z"/>
			<path fill="#E9DDB7" d="M148.8-215.9c0,7.2,4.6,13.8-1,16.3c-8.5,3.8-28-14.3-28-36.2c0-12,8.7-19,17.8-19c12.3,0,18,8.2,18,17.5
				C155.6-227.9,148.8-224.1,148.8-215.9z M143.4-221.2c0-1.1-0.9-2.1-2.1-2.1c-1.1,0-2.1,0.9-2.1,2.1c0,1.1,0.9,2.1,2.1,2.1
				C142.5-219.2,143.4-220.1,143.4-221.2z"/>
			<path fill="#A6D0E4" d="M146.2-104.8c0,6.2-4.2,10.7-8.6,11.6c-4.5,0.9-8.3-1.3-13,1.2c-4.8,2.6-7.1,11.1-16.8,11.1
				c-8,0-15.2-8-15.2-18.8c0-20.2,13.1-29.2,25.6-29.2C134.7-129.1,146.2-116.4,146.2-104.8z M126.4-119.2c0-2.1-1.7-3.8-3.8-3.8
				c-2.1,0-3.8,1.7-3.8,3.8c0,2.1,1.7,3.8,3.8,3.8C124.7-115.4,126.4-117.1,126.4-119.2z"/>
			<path fill="#C6DD7F" d="M145.5-128.5c0,1.3-1.1,2.4-2.4,2.4c-1.3,0-2.4-1.1-2.4-2.4c0-1.3,1.1-2.4,2.4-2.4
				C144.4-131,145.5-129.9,145.5-128.5z"/>
			<path fill="#A6D0E4" d="M229.2-147c-3.2,4.7,1,10.7-1.4,15.2c-2.4,4.5-6.7,5-9.9,2.6c-3.6-2.8-3.4-6.6-8.3-8.8
				c-5.5-2.5-18,2.2-19.7-7.3c-0.9-4.8,2.4-8.6,7.3-9.7c6.1-1.4,9.4-0.2,15.4-3.1c6.1-2.9,11.2-9,22.1-12.1
				c10.4-3,16.1,1.6,16.6,5.9C252.3-155.9,234.2-154.4,229.2-147z M226.9-154.5c0-1.2-1-2.2-2.2-2.2c-1.2,0-2.2,1-2.2,2.2
				c0,1.2,1,2.2,2.2,2.2C225.9-152.2,226.9-153.2,226.9-154.5z"/>
			<path fill="#E9DDB7" d="M256.1-107.9c0,17.2-14.5,25.5-27,22.8c-10.3-2.2-12.8-17.3-16.7-26.2c-3.7-8.6-8.8-22.5-20.2-22.5
				c-11.2,0-12.8,14.5-23.7,14.5c-11,0-24.5-15.7-24.5-39.7c0-14.7,9.8-31.5,20.8-30.7c11.7,0.8,4.5,19.7,15.3,19.7
				c9.5,0,7.9-16.3,9.2-23.3c1.7-9,6.8-14.2,18.5-13.2c14.4,1.2,22.3,13.5,18.9,23.3c-4,11.5-23.9,17.3-21.5,30.5
				c1.3,7.6,13,12,26,16.2C245.8-131.7,256.1-125,256.1-107.9z M211.2-183.7c0,1.8,1.5,3.3,3.3,3.3c1.8,0,3.3-1.5,3.3-3.3
				s-1.5-3.3-3.3-3.3C212.6-187,211.2-185.5,211.2-183.7z M164.5-158.8c0-1-0.8-1.7-1.7-1.7c-1,0-1.7,0.8-1.7,1.7
				c0,1,0.8,1.7,1.7,1.7C163.7-157.1,164.5-157.8,164.5-158.8z M182-148.1c0-2.1-1.7-3.8-3.8-3.8c-2.1,0-3.8,1.7-3.8,3.8
				c0,2.1,1.7,3.8,3.8,3.8C180.2-144.3,182-146,182-148.1z M201.8-163.6c0-0.9-0.7-1.6-1.6-1.6c-0.9,0-1.6,0.7-1.6,1.6
				c0,0.9,0.7,1.6,1.6,1.6C201.1-162.1,201.8-162.8,201.8-163.6z M231.5-108.9c0-1.8-1.4-3.2-3.2-3.2c-1.8,0-3.2,1.4-3.2,3.2
				c0,1.8,1.4,3.2,3.2,3.2C230.1-105.8,231.5-107.2,231.5-108.9z"/>
			<path fill="#A6D0E4" d="M223.5-192.4c-7.9,2.7-19.4-15.3-17.7-27c1.2-8.2,7.1-13.2,13.1-14.2c7.5-1.3,12.9,2.6,13.3,7.2
				c0.5,6.3-3.6,7.5-4.2,15C227.4-204.3,231.7-195.2,223.5-192.4z M219.7-219.9c0-1.4-1.2-2.6-2.6-2.6c-1.4,0-2.6,1.2-2.6,2.6
				c0,1.4,1.2,2.6,2.6,2.6C218.5-217.3,219.7-218.4,219.7-219.9z"/>
			<path fill="#E9DDB7" d="M119.4-214.8c0,1.4-1.2,2.6-2.6,2.6c-1.4,0-2.6-1.2-2.6-2.6c0-1.4,1.2-2.6,2.6-2.6
				C118.2-217.4,119.4-216.3,119.4-214.8z"/>
			<path fill="#E9DDB7" d="M253.3-128.1c0-8.4-5.1-15.2-11.3-15.2s-11.3,6.8-11.3,15.2c0,8.4,5.1,12.4,11.3,12.4
				S253.3-119.7,253.3-128.1z"/>
			<path fill="#A6D0E4" d="M184.6-222.6c0.7,8.1,12.7,7,17.9,14.2c10.5,14.5-1.2,46.4-21.6,46.4c-11.7,0-24.2-9.7-24.2-29.2
				c0-15.8,10.2-21.5,8.3-42.2c-1-10.8-12.5-20.3-12.5-34.8c0-5.9,3.6-13.4,11.6-13.4c7.1,0,10.8,6,10.8,12.9c0,6.8-5.4,15.7,1.4,19
				c5.2,2.6,13.2-4.8,19.5-6.8c5.2-1.6,12.4,0.2,14.8,8.5c2.5,8.9-3.3,14.7-11.6,16.7C192.5-229.7,184-229,184.6-222.6z
				 M168.6-253.1c0-1.8-1.5-3.3-3.3-3.3c-1.8,0-3.3,1.5-3.3,3.3c0,1.8,1.5,3.3,3.3,3.3C167.1-249.8,168.6-251.3,168.6-253.1z
				 M194.6-243.4c1.3,0,2.3-1,2.3-2.3c0-1.3-1-2.3-2.3-2.3c-1.3,0-2.3,1-2.3,2.3C192.2-244.5,193.3-243.4,194.6-243.4z M174.6-183.7
				c0-1.8-1.5-3.3-3.3-3.3c-1.8,0-3.3,1.5-3.3,3.3c0,1.8,1.5,3.3,3.3,3.3C173.1-180.5,174.6-181.9,174.6-183.7z"/>
			<path fill="#C6DD7F" d="M166.9-196.7c-11.8-1.4-19.4,0.3-22.7,3.1c-3,2.5-5,5.4-2.2,11.9c2.9,7.1,1.5,14.7-5.5,15.9
				c-6.2,1-10.9-4.8-11.2-12.3c-0.2-5.2-1.9-8.3-5.5-7.6c-3.6,0.7-4.6,5.9-3.6,11.8c1.4,8.1,5.5,11.8,6.2,20.2
				c0.5,6.1-2.9,13.7-12.5,15c-9.3,1.4-15.9-4.3-16.6-10.5c-0.7-6.6,3.6-10.9,3.1-17.6c-0.5-6.7-4-10.2-5.9-17.3
				c-2.8-10.5,1.2-19,7.8-22.7c14.7-8.1,22.8,3.6,36,1.6c10.9-1.7,23.3-18.2,33-19.5c8.2-1.2,13.8,4.7,15,14
				C183.5-201.3,177.6-195.4,166.9-196.7z M124.7-196.2c0-2.3-1.9-4.2-4.2-4.2c-2.3,0-4.2,1.9-4.2,4.2c0,2.3,1.9,4.2,4.2,4.2
				C122.9-192,124.7-193.9,124.7-196.2z M174.2-211.5c0-1-0.8-1.7-1.7-1.7c-1,0-1.7,0.8-1.7,1.7c0,1,0.8,1.7,1.7,1.7
				C173.4-209.8,174.2-210.6,174.2-211.5z"/>
			<path fill="#C6DD7F" d="M230.2-174.4c0,0.8-0.6,1.4-1.4,1.4c-0.8,0-1.4-0.6-1.4-1.4c0-0.8,0.6-1.4,1.4-1.4
				C229.6-175.7,230.2-175.1,230.2-174.4z"/>
			<path fill="#E9DDB7" d="M235.7-212.8c0,1.2-1,2.2-2.2,2.2s-2.3-1-2.3-2.2c0-1.2,1-2.2,2.3-2.2S235.7-214,235.7-212.8z"/>
			<path fill="#A6D0E4" d="M152.2-189.6c0,0.7-0.5,1.2-1.2,1.2s-1.2-0.5-1.2-1.2s0.5-1.2,1.2-1.2S152.2-190.2,152.2-189.6z"/>
			<path fill="#A6D0E4" d="M148.6-121.1c0,0.8-0.6,1.4-1.4,1.4s-1.4-0.6-1.4-1.4c0-0.8,0.6-1.4,1.4-1.4S148.6-121.9,148.6-121.1z"/>
			<path fill="#E9DDB7" d="M233.1-143.1c0,0.7-0.5,1.2-1.2,1.2s-1.2-0.5-1.2-1.2c0-0.7,0.5-1.2,1.2-1.2S233.1-143.7,233.1-143.1z"/>
			<path fill="#C6DD7F" d="M195.9-125.1c0,1.9-1.5,3.4-3.4,3.4c-1.9,0-3.4-1.5-3.4-3.4c0-1.9,1.5-3.4,3.4-3.4
				C194.3-128.5,195.9-127,195.9-125.1z"/>
			<path fill="#E9DDB7" d="M200.8-85.3c0,1.2-0.9,2.1-2.1,2.1c-1.2,0-2.1-0.9-2.1-2.1s0.9-2.1,2.1-2.1
				C199.9-87.4,200.8-86.4,200.8-85.3z"/>
			<path fill="#E9DDB7" d="M162-91.6c0,0.9-0.7,1.6-1.6,1.6c-0.9,0-1.6-0.7-1.6-1.6c0-0.9,0.7-1.6,1.6-1.6
				C161.3-93.1,162-92.4,162-91.6z"/>
			<path fill="#C6DD7F" d="M235.7-205.6c0,1.4-1.2,2.6-2.6,2.6c-1.4,0-2.6-1.2-2.6-2.6c0-1.4,1.2-2.6,2.6-2.6
				C234.5-208.2,235.7-207.1,235.7-205.6z"/>
			<path fill="#A6D0E4" d="M225.5-170.8c0,1.3-1.1,2.4-2.4,2.4c-1.3,0-2.4-1.1-2.4-2.4s1.1-2.4,2.4-2.4
				C224.4-173.1,225.5-172.1,225.5-170.8z"/>
			<path fill="#E9DDB7" d="M127.7-164.2c0,1.4-1.2,2.6-2.6,2.6c-1.4,0-2.6-1.2-2.6-2.6c0-1.4,1.2-2.6,2.6-2.6
				C126.5-166.8,127.7-165.6,127.7-164.2z"/>
			<path fill="#A6D0E4" d="M122.7-171.3c0,0.7-0.6,1.3-1.3,1.3c-0.7,0-1.3-0.6-1.3-1.3s0.6-1.3,1.3-1.3
				C122.1-172.6,122.7-172,122.7-171.3z"/>
			<path fill="#E9DDB7" d="M186.9-119.4c0,0.9-0.7,1.6-1.6,1.6c-0.9,0-1.6-0.7-1.6-1.6c0-0.9,0.7-1.6,1.6-1.6
				C186.2-120.9,186.9-120.2,186.9-119.4z"/>
		</g>
		<g>
			<path fill="#A6D0E4" d="M85-147c-3.2,4.7,1,10.7-1.4,15.2c-2.4,4.5-6.7,5-9.9,2.6c-3.6-2.8-3.4-6.6-8.3-8.8
				c-5.5-2.5-18,2.2-19.7-7.3c-0.9-4.8,2.4-8.6,7.3-9.7c6.1-1.4,9.4-0.2,15.4-3.1c6.1-2.9,11.2-9,22.1-12.1
				c10.4-3,16.1,1.6,16.6,5.9C108.2-155.9,90-154.4,85-147z M82.8-154.5c0-1.2-1-2.2-2.2-2.2c-1.2,0-2.2,1-2.2,2.2
				c0,1.2,1,2.2,2.2,2.2C81.8-152.2,82.8-153.2,82.8-154.5z"/>
			<path fill="#E9DDB7" d="M112-107.9c0,17.2-14.5,25.5-27,22.8c-10.3-2.2-12.8-17.3-16.7-26.2c-3.7-8.6-8.8-22.5-20.2-22.5
				c-11.2,0-12.8,14.5-23.7,14.5c-11,0-24.5-15.7-24.5-39.7c0-14.7,9.8-31.5,20.8-30.7c11.7,0.8,4.5,19.7,15.3,19.7
				c9.5,0,7.9-16.3,9.2-23.3c1.7-9,6.8-14.2,18.5-13.2c14.4,1.2,22.3,13.5,18.9,23.3c-4,11.5-23.9,17.3-21.5,30.5
				c1.3,7.6,13,12,26,16.2C101.7-131.7,112-125,112-107.9z M67-183.7c0,1.8,1.5,3.3,3.3,3.3c1.8,0,3.3-1.5,3.3-3.3s-1.5-3.3-3.3-3.3
				C68.5-187,67-185.5,67-183.7z M20.4-158.8c0-1-0.8-1.7-1.7-1.7c-1,0-1.7,0.8-1.7,1.7c0,1,0.8,1.7,1.7,1.7
				C19.6-157.1,20.4-157.8,20.4-158.8z M37.8-148.1c0-2.1-1.7-3.8-3.8-3.8c-2.1,0-3.8,1.7-3.8,3.8c0,2.1,1.7,3.8,3.8,3.8
				C36.1-144.3,37.8-146,37.8-148.1z M57.7-163.6c0-0.9-0.7-1.6-1.6-1.6c-0.9,0-1.6,0.7-1.6,1.6c0,0.9,0.7,1.6,1.6,1.6
				C57-162.1,57.7-162.8,57.7-163.6z M87.4-108.9c0-1.8-1.4-3.2-3.2-3.2c-1.8,0-3.2,1.4-3.2,3.2c0,1.8,1.4,3.2,3.2,3.2
				C85.9-105.8,87.4-107.2,87.4-108.9z"/>
			<path fill="#E9DDB7" d="M109.2-128.1c0-8.4-5.1-15.2-11.3-15.2c-6.3,0-11.3,6.8-11.3,15.2c0,8.4,5.1,12.4,11.3,12.4
				C104.1-115.6,109.2-119.7,109.2-128.1z"/>
		</g>
	</g>
</pattern>
<g>
	<path d="M610.8,177.1H183.7c-29.9,0-54.1-24.2-54.1-54.1V55.6c0-29.9,24.2-54.1,54.1-54.1h427.1c29.9,0,54.1,24.2,54.1,54.1v67.5
		C664.9,152.9,640.7,177.1,610.8,177.1z"/>
	<path d="M610.8,178.6H183.7c-30.6,0-55.6-24.9-55.6-55.6V55.6c0-30.6,24.9-55.6,55.6-55.6h427.1c30.6,0,55.6,24.9,55.6,55.6v67.5
		C666.4,153.7,641.5,178.6,610.8,178.6z M183.7,3c-29,0-52.6,23.6-52.6,52.6v67.5c0,29,23.6,52.6,52.6,52.6h427.1
		c29,0,52.6-23.6,52.6-52.6V55.6c0-29-23.6-52.6-52.6-52.6H183.7z"/>
</g>
<g>
	<path fill="#FFFFFF" d="M178.2,177.1H55.6c-29.9,0-54.1-24.2-54.1-54.1V55.6c0-29.9,24.2-54.1,54.1-54.1h122.6
		c29.9,0,54.1,24.2,54.1,54.1v67.5C232.2,152.9,208,177.1,178.2,177.1z"/>
	<path d="M178.2,178.6H55.6C24.9,178.6,0,153.7,0,123.1V55.6C0,24.9,24.9,0,55.6,0h122.6c30.6,0,55.6,24.9,55.6,55.6v67.5
		C233.7,153.7,208.8,178.6,178.2,178.6z M55.6,3C26.6,3,3,26.6,3,55.6v67.5c0,29,23.6,52.6,52.6,52.6h122.6
		c29,0,52.6-23.6,52.6-52.6V55.6c0-29-23.6-52.6-52.6-52.6H55.6z"/>
</g>
<g>
	<g>
		<g>
			<path fill="#C69C6D" d="M203.8,79.5c1.7-2.1,3.1-4.5,4.1-7.4c1.1-2.8,1.6-6,1.6-9.6c0-7.8-3.1-13.5-9.2-17.4
				c-6.2-3.9-14.7-5.8-25.6-5.8h-66.5l-25.8,26h88.8c2,0,3.8,0.3,5.3,1c1.5,0.8,2.3,2.1,2.3,4.1c0,3-1,5.1-3,6.2
				c-2,1.2-4.3,1.7-6.9,1.7H80.2l-5.5,31l31.1,0l1.7-10.1h57.2c5.8,0,8.7,2.1,8.7,5.9c0,2.6-0.9,4.6-2.7,6c-1.8,1.4-4.6,2.1-8.4,2.1
				h-18.5l-24.8,26h38.6c9.6,0,17.4-1,23.4-2.9s10.7-4.5,14.2-7.7c3.4-3.1,5.8-6.7,7-10.6c1.3-3.9,1.9-8,1.9-12.1
				c0-4.9-1.2-8.9-3.5-12c-2.4-3.1-5.3-5.2-8.9-6.3c2.2-0.7,4.3-1.7,6.4-3.1C200.2,83.3,202.1,81.6,203.8,79.5z"/>
			<polygon fill="#C69C6D" points="99.1,113.3 67.9,113.3 59.8,113.3 73,39.3 42.1,39.3 24.3,139.3 63.4,139.3 112.9,139.3 
				137.7,113.3 			"/>
		</g>
	</g>
	<g>
		<g>
			<pattern  id="SVGID_1_" xlink:href="#Alysse" patternTransform="matrix(1.764 0 0 1.764 5139.1602 5060.52)">
			</pattern>
			<path fill="url(#SVGID_1_)" d="M203.8,79.5c1.7-2.1,3.1-4.5,4.1-7.4c1.1-2.8,1.6-6,1.6-9.6c0-7.8-3.1-13.5-9.2-17.4
				c-6.2-3.9-14.7-5.8-25.6-5.8h-66.5l-25.8,26h88.8c2,0,3.8,0.3,5.3,1c1.5,0.8,2.3,2.1,2.3,4.1c0,3-1,5.1-3,6.2
				c-2,1.2-4.3,1.7-6.9,1.7H80.2l-5.5,31l31.1,0l1.7-10.1h57.2c5.8,0,8.7,2.1,8.7,5.9c0,2.6-0.9,4.6-2.7,6c-1.8,1.4-4.6,2.1-8.4,2.1
				h-18.5l-24.8,26h38.6c9.6,0,17.4-1,23.4-2.9s10.7-4.5,14.2-7.7c3.4-3.1,5.8-6.7,7-10.6c1.3-3.9,1.9-8,1.9-12.1
				c0-4.9-1.2-8.9-3.5-12c-2.4-3.1-5.3-5.2-8.9-6.3c2.2-0.7,4.3-1.7,6.4-3.1C200.2,83.3,202.1,81.6,203.8,79.5z"/>
			<pattern  id="SVGID_2_" xlink:href="#Alysse" patternTransform="matrix(1.764 0 0 1.764 5139.1602 5060.52)">
			</pattern>
			<polygon fill="url(#SVGID_2_)" points="99.1,113.3 67.9,113.3 59.8,113.3 73,39.3 42.1,39.3 24.3,139.3 63.4,139.3 112.9,139.3 
				137.7,113.3 			"/>
		</g>
	</g>
	<g>
		<g>
			<path d="M203.8,79.5c1.7-2.1,3.1-4.5,4.1-7.4c1.1-2.8,1.6-6,1.6-9.6c0-7.8-3.1-13.5-9.2-17.4c-6.2-3.9-14.7-5.8-25.6-5.8h-66.5
				l-25.8,26h88.8c2,0,3.8,0.3,5.3,1c1.5,0.8,2.3,2.1,2.3,4.1c0,3-1,5.1-3,6.2c-2,1.2-4.3,1.7-6.9,1.7H80.2l-5.5,31l31.1,0l1.7-10.1
				h57.2c5.8,0,8.7,2.1,8.7,5.9c0,2.6-0.9,4.6-2.7,6c-1.8,1.4-4.6,2.1-8.4,2.1h-18.5l-24.8,26h38.6c9.6,0,17.4-1,23.4-2.9
				s10.7-4.5,14.2-7.7c3.4-3.1,5.8-6.7,7-10.6c1.3-3.9,1.9-8,1.9-12.1c0-4.9-1.2-8.9-3.5-12c-2.4-3.1-5.3-5.2-8.9-6.3
				c2.2-0.7,4.3-1.7,6.4-3.1C200.2,83.3,202.1,81.6,203.8,79.5z"/>
			<polygon fill="#FF0000" points="99.1,113.3 67.9,113.3 59.8,113.3 73,39.3 42.1,39.3 24.3,139.3 63.4,139.3 112.9,139.3 
				137.7,113.3 			"/>
		</g>
	</g>
</g>
<g>
	<path fill="#FF0000" d="M305.7,58.2l-11.9,12.4h-42.6l8.6-48.2h14.8l-6.3,35.8H305.7z"/>
	<path fill="#FF0000" d="M328.8,70.6L340,58.2h12c1.5,0,3,0,4.5,0c1.5,0,2.9,0,4,0.1c-0.5-0.9-1.1-2-1.8-3.3
		c-0.7-1.3-1.3-2.6-1.9-3.7l-6.4-12.7l-28.2,32h-17.6L343.3,27c1.2-1.4,2.7-2.6,4.5-3.7c1.7-1.1,3.8-1.7,6.1-1.7
		c2.3,0,4,0.5,5.4,1.5c1.3,1,2.4,2.3,3.2,3.9l22.4,43.6H328.8z"/>
	<path fill="#FF0000" d="M439.9,41.7c5.2,0,9.2,0.9,11.9,2.8c2.7,1.8,4.1,4.6,4.1,8.2c0,2.6-0.4,5-1.3,7.2c-0.9,2.2-2.2,4.1-4.1,5.7
		c-1.9,1.6-4.3,2.9-7.3,3.7c-3,0.9-6.6,1.3-10.9,1.3h-44.9l11.7-12.4h36.5c2,0,3.5-0.3,4.4-1c0.9-0.7,1.4-1.7,1.4-3.1
		c0-1.9-1.5-2.9-4.5-2.9h-26.3c-5.5,0-9.5-1.1-12-3.2c-2.5-2.1-3.8-4.9-3.8-8.4c0-2.4,0.4-4.7,1.3-6.8c0.9-2.1,2.2-3.9,4.1-5.5
		c1.9-1.6,4.3-2.8,7.3-3.6c3-0.9,6.6-1.3,10.8-1.3H460L448.2,35h-33.4c-2,0-3.5,0.3-4.4,0.9c-0.9,0.6-1.4,1.6-1.4,3.1
		c0,1.8,1.5,2.7,4.6,2.7H439.9z"/>
	<path fill="#FF0000" d="M517.6,58.2l-11.8,12.4h-46.4l8.6-48.2h55.7L511.9,35h-31.2l-1,5.8h38.1l-10.4,10.9h-29.7l-1.2,6.6H517.6z"
		/>
	<path fill="#FF0000" d="M588.9,70.6h-19.9l-8.5-12.7h-22.9l-2.2,12.7h-14.9l4.3-24.6h41.9c1.2,0,2.4-0.1,3.6-0.4s2.1-0.7,3-1.2
		c0.8-0.5,1.5-1.2,2-2c0.5-0.8,0.8-1.7,0.8-2.6c0-1.6-0.6-2.8-1.9-3.6s-3.1-1.2-5.4-1.2h-41.9l12-12.5h31c2.5,0,5.1,0.2,7.7,0.6
		c2.6,0.4,5,1.2,7.1,2.3c2.1,1.1,3.9,2.6,5.2,4.5c1.3,1.9,2,4.2,2,7.1c0,2.2-0.4,4.2-1.1,6.2c-0.7,2-1.8,3.7-3.2,5.3
		c-1.4,1.6-3,2.9-4.9,4c-1.9,1.1-4,1.9-6.3,2.3c0.7,0.6,1.4,1.4,2.3,2.4c0.8,1,1.9,2.3,3.3,4L588.9,70.6z"/>
	<path fill="#FFFFFF" d="M309.9,132.2c1.7,0.5,3.2,1.5,4.3,3c1.1,1.5,1.7,3.4,1.7,5.8c0,2-0.3,3.9-0.9,5.8c-0.6,1.9-1.7,3.6-3.4,5.1
		c-1.7,1.5-3.9,2.7-6.8,3.7s-6.6,1.4-11.2,1.4h-42.3l5.2-29.3h42.6c1.2,0,2.4-0.3,3.3-0.8c1-0.6,1.4-1.5,1.4-3c0-1-0.4-1.6-1.1-2
		c-0.7-0.4-1.6-0.5-2.6-0.5h-42.6l12.4-12.5h31.9c5.2,0,9.3,0.9,12.3,2.8c3,1.9,4.4,4.7,4.4,8.5c0,1.7-0.3,3.3-0.8,4.6
		c-0.5,1.3-1.2,2.5-2,3.5c-0.8,1-1.7,1.8-2.7,2.5S311,131.9,309.9,132.2z M269.5,138l-1.2,6.6h27.4c1.8,0,3.2-0.3,4-1
		c0.9-0.7,1.3-1.6,1.3-2.9c0-1.8-1.4-2.7-4.2-2.7H269.5z"/>
	<path fill="#FFFFFF" d="M336.7,157l11.2-12.4h12c1.5,0,3,0,4.5,0c1.5,0,2.9,0,4,0.1c-0.5-0.9-1.1-2-1.8-3.3
		c-0.7-1.3-1.3-2.6-1.9-3.7l-6.4-12.7l-28.2,32h-17.6l38.6-43.6c1.2-1.4,2.7-2.6,4.5-3.7c1.7-1.1,3.8-1.7,6.1-1.7
		c2.3,0,4,0.5,5.4,1.5c1.3,1,2.4,2.3,3.2,3.9l22.4,43.6H336.7z"/>
	<path fill="#FFFFFF" d="M451,108.8l-12,12.5H422l-6.3,35.6h-14.9l6.3-35.6h-22.6l12-12.5H451z"/>
	<path fill="#FFFFFF" d="M515.4,108.8l-12,12.5h-17.1L480,157h-14.9l6.3-35.6h-22.6l12-12.5H515.4z"/>
	<path fill="#FFFFFF" d="M565.8,144.6L553.9,157h-42.6l8.6-48.2h14.8l-6.3,35.8H565.8z"/>
	<path fill="#FFFFFF" d="M626.7,144.6L614.9,157h-46.4l8.6-48.2h55.7L621,121.4h-31.2l-1,5.8h38.1l-10.4,10.9h-29.7l-1.2,6.6H626.7z
		"/>
</g>
</svg>
